<svg width="686" height="280" viewBox="0 0 686 280" fill="none" xmlns="http://www.w3.org/2000/svg">
<path d="M32.0009 114.598C32.156 82.491 52.1646 59.8457 86.753 60.0008C98.2308 60.0008 108.313 63.1029 116.688 71.7888V76.2868C109.864 67.4458 100.868 62.1723 86.753 62.1723C58.3688 62.0172 45.6501 86.5238 45.6501 114.288C45.6501 142.051 58.2136 166.558 86.4428 166.713C99.7818 166.713 111.415 161.44 118.084 152.909V157.407C110.949 165.472 98.2308 168.885 86.4428 168.885C52.0094 168.729 31.8458 146.549 32.0009 114.598Z" fill="white"/>
<path d="M188.194 76.5961L194.243 61.2407L232.554 167.798H220.3L207.272 130.728L169.426 130.573L155.001 167.488H152.52L188.194 76.5961ZM206.496 128.556L189.435 80.0084L170.357 128.556H206.496Z" fill="white"/>
<path d="M274.428 82.3357L274.273 167.799H272.102L272.412 61.3965L350.74 147.48L350.895 62.172L353.066 62.7924L352.756 168.419L274.428 82.3357Z" fill="white"/>
<path d="M397.427 62.3276L451.559 62.4827V64.6542L408.905 64.4991L408.75 114.288L443.804 114.443V116.614L408.75 116.459L408.595 166.093L451.249 166.248V168.42L397.117 168.264L397.427 62.3276Z" fill="white"/>
<path d="M489.406 62.4824H500.884L500.573 166.093L540.591 166.248V168.419L489.096 168.264L489.406 62.4824Z" fill="white"/>
<path d="M608.989 77.6826L615.038 62.3271L653.349 168.884H641.095L628.067 131.969L590.221 131.814L575.796 168.574H573.314L608.989 77.6826ZM627.291 129.643L610.229 81.0949L591.152 129.488L627.291 129.643Z" fill="white"/>
<path d="M214.734 198.354V208.902L224.506 198.354H226.988L216.906 209.212C217.681 209.987 218.302 210.763 219.077 211.694C219.853 212.469 220.628 213.245 221.249 214.02C222.179 215.106 223.265 216.192 224.196 217.122C225.126 218.053 226.212 219.294 227.143 220.379H224.816L214.734 209.522V220.379H212.873V198.354H214.734Z" fill="white"/>
<path d="M235.675 203.783C235.675 205.644 235.675 207.506 235.675 209.212V220.224H233.969V198.354H234.899H235.83C235.675 200.216 235.675 201.922 235.675 203.783Z" fill="white"/>
<path d="M242.037 200.216V198.354H255.997V200.216H249.947V220.379H248.086V200.216H242.037Z" fill="white"/>
<path d="M263.127 212.934C263.438 214.02 263.903 215.106 264.523 216.036C265.144 216.967 265.919 217.588 266.85 218.208C267.781 218.673 269.021 218.983 270.262 218.983C271.193 218.983 272.123 218.828 273.054 218.363C273.985 217.898 274.76 217.277 275.381 216.657L276.466 218.053C275.691 218.983 274.76 219.604 273.674 220.224C272.589 220.845 271.503 221 270.262 221C268.711 221 267.315 220.69 266.074 220.069C264.834 219.449 263.903 218.518 263.127 217.432C262.352 216.347 261.731 215.106 261.421 213.71C261.111 212.314 260.801 210.918 260.801 209.522C260.801 208.126 260.956 206.73 261.421 205.334C261.731 203.938 262.352 202.697 263.127 201.612C263.903 200.526 264.833 199.595 265.919 198.975C267.005 198.354 268.401 197.889 269.952 197.889C271.193 197.889 272.279 198.199 273.519 198.665C274.605 199.13 275.691 199.906 276.466 200.681L275.381 202.077C274.605 201.301 273.83 200.836 272.899 200.371C271.968 200.061 271.038 199.906 269.952 199.906C268.711 199.906 267.625 200.216 266.695 200.836C265.764 201.457 264.989 202.077 264.523 203.008C264.058 203.938 263.438 205.024 263.282 206.11C262.972 207.195 262.817 208.436 262.817 209.522C262.662 210.608 262.817 211.849 263.127 212.934Z" fill="white"/>
<path d="M284.999 200.681C284.999 201.612 284.999 202.542 284.999 203.473C284.999 204.404 284.999 205.334 284.999 206.265C284.999 207.195 284.999 207.971 284.999 208.591H296.322V198.51H298.183V220.535H296.322V210.453H284.999V220.379H283.293V198.354H284.999C284.999 198.975 284.999 199.75 284.999 200.681Z" fill="white"/>
<path d="M319.275 200.216H308.728V208.126H317.724V210.142H308.728V218.363H319.275V220.379H307.021V198.354H319.275V200.216Z" fill="white"/>
<path d="M328.116 200.061V220.379H326.564V198.354H329.201L340.679 218.673V198.354H342.23V220.379H339.748L328.116 200.061Z" fill="white"/>
<path d="M359.135 220.379V198.354H364.253C364.563 198.354 364.874 198.354 365.184 198.354C365.494 198.354 365.804 198.354 366.114 198.354C367.51 198.354 368.906 198.665 369.992 199.285C371.078 199.906 372.008 200.681 372.784 201.767C373.56 202.853 374.18 203.938 374.49 205.334C374.8 206.575 375.111 207.971 375.111 209.367C375.111 210.763 374.955 212.004 374.49 213.245C374.18 214.485 373.56 215.726 372.784 216.812C372.008 217.898 371.078 218.673 369.992 219.294C368.906 219.914 367.666 220.224 366.114 220.224C365.804 220.224 365.494 220.224 365.184 220.224C364.874 220.224 364.563 220.224 364.253 220.224H359.135V220.379ZM360.996 200.216V218.363H366.27C367.51 218.363 368.596 218.053 369.372 217.588C370.147 217.122 371.078 216.347 371.698 215.571C372.319 214.641 372.784 213.71 373.094 212.624C373.404 211.538 373.56 210.453 373.56 209.367C373.56 208.281 373.404 207.04 373.094 205.955C372.784 204.869 372.319 203.938 371.698 203.008C371.078 202.077 370.302 201.457 369.372 200.991C368.441 200.526 367.355 200.216 366.114 200.216H360.996Z" fill="white"/>
<path d="M395.119 200.216H384.571V208.126H393.567V210.142H384.571V218.363H395.119V220.379H382.865V198.354H395.119V200.216Z" fill="white"/>
<path d="M402.563 216.812C403.028 217.432 403.804 217.898 404.579 218.363C405.51 218.828 406.286 218.983 407.061 218.983C407.682 218.983 408.302 218.983 408.767 218.828C409.388 218.673 409.853 218.363 410.318 218.053C410.784 217.743 411.094 217.277 411.404 216.812C411.714 216.347 411.714 215.726 411.714 214.951C411.714 214.33 411.559 213.71 411.404 213.245C411.249 212.779 410.939 212.469 410.474 212.004C410.163 211.694 409.698 211.383 409.233 211.228C408.767 210.918 408.147 210.763 407.682 210.608C406.906 210.298 406.131 209.987 405.51 209.677C404.735 209.367 404.114 209.057 403.494 208.591C402.873 208.126 402.408 207.506 401.943 206.73C401.477 205.955 401.322 205.024 401.322 203.938C401.322 203.008 401.477 202.232 401.788 201.457C402.098 200.681 402.563 200.061 403.184 199.595C403.804 199.13 404.424 198.665 405.2 198.354C405.975 198.044 406.751 197.889 407.682 197.889C408.767 197.889 409.698 198.044 410.784 198.51C411.714 198.82 412.645 199.44 413.42 200.216L412.025 201.612C411.404 200.991 410.784 200.526 410.008 200.216C409.233 199.906 408.457 199.75 407.682 199.75C407.216 199.75 406.596 199.906 406.131 200.061C405.665 200.216 405.2 200.526 404.735 200.836C404.269 201.146 403.959 201.612 403.804 202.077C403.494 202.542 403.494 203.008 403.494 203.628C403.494 204.404 403.649 205.024 403.959 205.489C404.269 205.955 404.58 206.42 405.045 206.885C405.51 207.351 405.975 207.506 406.596 207.816C407.216 208.126 407.837 208.281 408.457 208.591C409.078 208.902 409.853 209.057 410.474 209.367C411.094 209.677 411.714 209.987 412.335 210.453C412.8 210.918 413.265 211.383 413.576 212.159C413.886 212.779 414.041 213.71 414.041 214.641C414.041 215.571 413.886 216.502 413.576 217.277C413.265 218.053 412.8 218.673 412.18 219.294C411.559 219.759 410.939 220.224 410.163 220.535C409.388 220.845 408.457 221 407.526 221C406.441 221 405.2 220.845 404.114 220.379C403.028 219.914 402.098 219.294 401.322 218.363L402.563 216.812Z" fill="white"/>
<path d="M423.351 203.783C423.351 205.644 423.351 207.506 423.351 209.212V220.224H421.645V198.354H422.575H423.506C423.351 200.216 423.351 201.922 423.351 203.783Z" fill="white"/>
<path d="M437.155 200.526C436.224 201.147 435.448 201.767 434.828 202.698C434.208 203.628 433.742 204.559 433.432 205.8C433.122 206.885 432.967 208.126 432.967 209.367C432.967 210.608 433.122 211.849 433.432 212.935C433.742 214.02 434.363 215.106 434.983 216.037C435.604 216.967 436.534 217.588 437.465 218.053C438.395 218.518 439.636 218.829 441.032 218.829C441.963 218.829 442.893 218.673 443.669 218.208C444.6 217.743 445.375 217.277 445.996 216.657V209.988H441.653V207.971H447.547V217.588C446.771 218.518 445.685 219.294 444.6 219.914C443.514 220.535 442.273 220.69 440.877 220.69C439.326 220.69 437.93 220.38 436.689 219.759C435.448 219.139 434.518 218.208 433.587 217.277C432.812 216.192 432.191 214.951 431.726 213.555C431.261 212.159 431.105 210.763 431.105 209.212C431.105 207.816 431.261 206.42 431.726 205.024C432.191 203.628 432.657 202.387 433.432 201.302C434.208 200.216 435.138 199.285 436.379 198.665C437.62 198.044 438.861 197.579 440.412 197.579C441.653 197.579 442.893 197.889 443.979 198.355C445.065 198.82 446.151 199.595 447.081 200.371C447.081 200.371 446.926 200.526 446.926 200.681C446.771 200.836 446.771 200.991 446.616 201.147C446.461 201.302 446.461 201.457 446.306 201.612C446.151 201.767 446.151 201.767 446.151 201.922C445.375 201.147 444.6 200.681 443.514 200.216C442.583 199.906 441.498 199.751 440.567 199.751C439.171 199.751 438.085 200.061 437.155 200.526Z" fill="white"/>
<path d="M456.543 200.061V220.379H454.992V198.354H457.629L469.107 218.673V198.354H470.658V220.379H468.176L456.543 200.061Z" fill="white"/>
</svg>
